<svg width="40" height="40" viewBox="0 0 40 40" fill="none" xmlns="http://www.w3.org/2000/svg">
  <!-- Background Circle (Slate-950) -->
  <circle cx="20" cy="20" r="20" fill="#020617" />
  
  <!-- Content from QertexLogo -->
  <g transform="translate(0, 0)">
    <!-- Shard 1 (Top Left) -->
    <path d="M14 6L22 10L16 18L10 12L14 6Z" fill="white" fill-opacity="0.8" />
    <!-- Shard 2 (Top Right) -->
    <path d="M26 8L32 14L28 22L20 16L26 8Z" fill="white" fill-opacity="0.6" />
    <!-- Shard 3 (Bottom Left) -->
    <path d="M8 20L14 26L10 34L4 24L8 20Z" fill="white" fill-opacity="0.7" />
    <!-- Shard 4 (Bottom Right - The Body) -->
    <path d="M26 24L30 20L34 28L28 28L26 24Z" fill="white" fill-opacity="0.5" />
    
    <!-- The Red Vertex (Singularity Tail) -->
    <path d="M22 24L34 36L28 22L22 24Z" fill="#E60023" />
    
    <!-- The Singularity Point (Center) -->
    <circle cx="20" cy="20" r="2" fill="white" />
    
    <!-- Orbit Rings (Optional visual flair) -->
    <circle cx="20" cy="20" r="16" stroke="white" stroke-width="0.5" stroke-opacity="0.2" stroke-dasharray="4 4" />
  </g>
</svg>
